<?xml version="1.0" encoding="UTF-8" standalone="no"?>
<!-- Created with Inkscape (http://www.inkscape.org/) -->

<svg
   xmlns:dc="http://purl.org/dc/elements/1.1/"
   xmlns:cc="http://creativecommons.org/ns#"
   xmlns:rdf="http://www.w3.org/1999/02/22-rdf-syntax-ns#"
   xmlns:svg="http://www.w3.org/2000/svg"
   xmlns="http://www.w3.org/2000/svg"
   xmlns:sodipodi="http://sodipodi.sourceforge.net/DTD/sodipodi-0.dtd"
   xmlns:inkscape="http://www.inkscape.org/namespaces/inkscape"
   width="64.06443mm"
   height="158.04616mm"
   viewBox="0 0 226.99995 560.00607"
   id="svg9765"
   version="1.1"
   inkscape:version="0.91 r13725"
   sodipodi:docname="anger.svg">
  <defs
     id="defs9767" />
  <sodipodi:namedview
     id="base"
     pagecolor="#ffffff"
     bordercolor="#666666"
     borderopacity="1.0"
     inkscape:pageopacity="0.0"
     inkscape:pageshadow="2"
     inkscape:zoom="0.49497475"
     inkscape:cx="-308.3819"
     inkscape:cy="289.87687"
     inkscape:document-units="px"
     inkscape:current-layer="layer1"
     showgrid="false"
     fit-margin-top="0"
     fit-margin-left="0"
     fit-margin-right="0"
     fit-margin-bottom="0"
     inkscape:window-width="1280"
     inkscape:window-height="657"
     inkscape:window-x="-8"
     inkscape:window-y="-8"
     inkscape:window-maximized="1" />
  <metadata
     id="metadata9770">
    <rdf:RDF>
      <cc:Work
         rdf:about="">
        <dc:format>image/svg+xml</dc:format>
        <dc:type
           rdf:resource="http://purl.org/dc/dcmitype/StillImage" />
        <dc:title></dc:title>
      </cc:Work>
    </rdf:RDF>
  </metadata>
  <g
     inkscape:label="Layer 1"
     inkscape:groupmode="layer"
     id="layer1"
     transform="translate(-346.50002,-343.78774)">
    <path
       style="opacity:1;fill:#ff0000;fill-opacity:1;stroke:#000000;stroke-width:7.00000048;stroke-linejoin:round;stroke-miterlimit:4;stroke-dasharray:none;stroke-opacity:1"
       d="m 459.9883,529.11219 a 109.9886,104.2765 0 0 0 -109.98828,104.27735 109.9886,104.2765 0 0 0 0.0527,1.41211 l 0,263.11914 c 0,1.31403 1.08681,2.37304 2.43555,2.37304 l 215.07813,0 c 1.34872,0 2.43359,-1.05901 2.43359,-2.37304 l 0,-265.25586 c 0,-0.18998 -0.0274,-0.37198 -0.0703,-0.54883 A 109.9886,104.2765 0 0 0 459.9883,529.11219 Z"
       id="rect6092"
       inkscape:connector-curvature="0" />
    <ellipse
       style="opacity:1;fill:#ffffff;fill-opacity:1;stroke:#000000;stroke-width:7;stroke-linejoin:round;stroke-miterlimit:4;stroke-dasharray:none;stroke-opacity:1"
       id="path6096"
       cx="459.98734"
       cy="426.8331"
       rx="79.545387"
       ry="79.545372" />
    <path
       style="fill:none;fill-rule:evenodd;stroke:#000000;stroke-width:7;stroke-linecap:round;stroke-linejoin:miter;stroke-miterlimit:4;stroke-dasharray:none;stroke-opacity:1"
       d="m 428.21429,467.71935 c -6.28855,-16.69857 38.65835,-26.6431 62.5,0"
       id="path9733"
       inkscape:connector-curvature="0"
       sodipodi:nodetypes="cc" />
    <path
       style="fill:#000000;fill-opacity:1;fill-rule:evenodd;stroke:#000000;stroke-width:0.77708989px;stroke-linecap:butt;stroke-linejoin:miter;stroke-opacity:1"
       d="m 411.01766,409.68613 c -0.61389,-8.88358 4.13133,-11.13621 9.68198,-10.8587 6.10572,-0.27751 19.76241,13.49848 25.26201,10.47989 -1.43046,4.50408 0,3.88546 -7.77086,7.77091 -1.9806,1.05118 -8.58814,3.2725 -19.42728,0 -5.24552,-2.43336 -5.89167,-3.50242 -7.74585,-7.3921 z"
       id="path6115"
       inkscape:connector-curvature="0"
       sodipodi:nodetypes="cccccc" />
    <path
       style="fill:#000000;fill-opacity:1;fill-rule:evenodd;stroke:#000000;stroke-width:0.77708989px;stroke-linecap:butt;stroke-linejoin:miter;stroke-opacity:1"
       d="m 502.22611,410.38962 c 0.61389,-8.88358 -4.13133,-11.13621 -9.68198,-10.8587 -6.10572,-0.27751 -19.76241,13.49848 -25.26201,10.47989 1.43046,4.50408 0,3.88546 7.77086,7.77091 1.9806,1.05118 8.58814,3.2725 19.42728,0 5.24552,-2.43336 5.89167,-3.50242 7.74585,-7.3921 z"
       id="path6115-9"
       inkscape:connector-curvature="0"
       sodipodi:nodetypes="cccccc" />
    <path
       style="fill:#ffffff;fill-opacity:1;fill-rule:evenodd;stroke:#000000;stroke-width:7;stroke-linecap:butt;stroke-linejoin:miter;stroke-miterlimit:4;stroke-dasharray:none;stroke-opacity:1"
       d="m 439.52707,723.67028 c 11.54156,21.61717 2.48614,21.97092 -3.24494,20.86269 -0.54774,4.79533 -4.78633,9.08451 -11.35468,5.84569 0,6.59375 -5.35519,8.16686 -10.39427,6.14561 -0.93972,4.3932 -1.23498,5.67057 -6.87371,4.94259 0,0 -8.22618,-9.57143 -11.01093,-13.54264 -6.43078,-10.54885 -9.68269,-20.53947 -7.78322,-28.80719 0.38841,-1.69063 -0.17196,-7.08652 0.39895,-8.71004 11.01526,-4.71223 26.14055,-15.83981 28.98187,-18.12427 13.33563,5.89679 20.59056,10.37226 26.85752,19.26202 4.75037,8.40128 10.87909,20.93029 8.73638,25.81051 -9.31152,5.92326 -9.42908,-10.83088 -14.97775,-15.74252 z"
       id="path8090"
       inkscape:connector-curvature="0"
       sodipodi:nodetypes="ccccccscccccc" />
    <path
       style="fill:#ffffff;fill-opacity:1;fill-rule:evenodd;stroke:#000000;stroke-width:7;stroke-linecap:butt;stroke-linejoin:miter;stroke-miterlimit:4;stroke-dasharray:none;stroke-opacity:1"
       d="m 482.4406,723.67028 c -11.54156,21.61717 -2.48614,21.97092 3.24494,20.86269 0.54774,4.79533 4.78633,9.08451 11.35468,5.84569 0,6.59375 5.35519,8.16686 10.39427,6.14561 0.93972,4.3932 1.23498,5.67057 6.87371,4.94259 0,0 8.22618,-9.57143 11.01093,-13.54264 6.43078,-10.54885 9.68269,-20.53947 7.78322,-28.80719 -0.38841,-1.69063 0.17196,-7.08652 -0.39895,-8.71004 -11.01526,-4.71223 -26.14055,-15.83981 -28.98187,-18.12427 -13.33563,5.89679 -20.59056,10.37226 -26.85752,19.26202 -4.75037,8.40128 -10.87909,20.93029 -8.73638,25.81051 9.31152,5.92326 9.42908,-10.83088 14.97775,-15.74252 z"
       id="path8090-6"
       inkscape:connector-curvature="0"
       sodipodi:nodetypes="ccccccscccccc" />
  </g>
</svg>
