<?xml version="1.0" encoding="UTF-8" standalone="no"?>
<!-- Created with Inkscape (http://www.inkscape.org/) -->

<svg
   xmlns:dc="http://purl.org/dc/elements/1.1/"
   xmlns:cc="http://creativecommons.org/ns#"
   xmlns:rdf="http://www.w3.org/1999/02/22-rdf-syntax-ns#"
   xmlns:svg="http://www.w3.org/2000/svg"
   xmlns="http://www.w3.org/2000/svg"
   xmlns:sodipodi="http://sodipodi.sourceforge.net/DTD/sodipodi-0.dtd"
   xmlns:inkscape="http://www.inkscape.org/namespaces/inkscape"
   width="64.06443mm"
   height="158.04617mm"
   viewBox="0 0 226.99995 560.00612"
   id="svg9169"
   version="1.1"
   inkscape:version="0.91 r13725"
   sodipodi:docname="anticipation.svg">
  <defs
     id="defs9171" />
  <sodipodi:namedview
     id="base"
     pagecolor="#ffffff"
     bordercolor="#666666"
     borderopacity="1.0"
     inkscape:pageopacity="0"
     inkscape:pageshadow="2"
     inkscape:zoom="0.49497475"
     inkscape:cx="304.52209"
     inkscape:cy="657.71209"
     inkscape:document-units="px"
     inkscape:current-layer="layer1"
     showgrid="false"
     inkscape:snap-bbox="false"
     inkscape:snap-global="false"
     fit-margin-top="0"
     fit-margin-left="0"
     fit-margin-right="0"
     fit-margin-bottom="0"
     inkscape:window-width="1280"
     inkscape:window-height="657"
     inkscape:window-x="-8"
     inkscape:window-y="-8"
     inkscape:window-maximized="1" />
  <metadata
     id="metadata9174">
    <rdf:RDF>
      <cc:Work
         rdf:about="">
        <dc:format>image/svg+xml</dc:format>
        <dc:type
           rdf:resource="http://purl.org/dc/dcmitype/StillImage" />
        <dc:title></dc:title>
      </cc:Work>
    </rdf:RDF>
  </metadata>
  <g
     inkscape:label="Layer 1"
     inkscape:groupmode="layer"
     id="layer1"
     transform="translate(-260.78573,-255.21629)">
    <path
       style="opacity:1;fill:#ff6600;fill-opacity:1;stroke:#000000;stroke-width:7;stroke-linejoin:round;stroke-miterlimit:4;stroke-dasharray:none;stroke-opacity:1"
       d="m 374.27401,440.54076 c -60.74525,1.7e-4 -109.98878,46.68682 -109.98828,104.27735 0.0142,0.47081 0.0318,0.94152 0.0527,1.41211 l 0,263.11914 c 0,1.31403 1.08681,2.37304 2.43555,2.37304 l 215.07813,0 c 1.34872,0 2.43359,-1.05901 2.43359,-2.37304 l 0,-265.25586 c 0,-0.18998 -0.0274,-0.37198 -0.0703,-0.54883 -0.73475,-57.0753 -49.73512,-102.98366 -109.94139,-103.00391 z"
       id="rect6092"
       inkscape:connector-curvature="0"
       sodipodi:nodetypes="cccssssscc" />
    <ellipse
       style="opacity:1;fill:#ffffff;fill-opacity:1;stroke:#000000;stroke-width:7;stroke-linejoin:round;stroke-miterlimit:4;stroke-dasharray:none;stroke-opacity:1"
       id="path6096"
       cx="374.27304"
       cy="338.26166"
       rx="79.545387"
       ry="79.545372" />
    <path
       style="fill:#000000;fill-opacity:1;fill-rule:evenodd;stroke:#000000;stroke-width:0.71607184px;stroke-linecap:butt;stroke-linejoin:miter;stroke-opacity:1"
       d="m 332.14239,335.22754 c -0.51996,-8.90593 4.34588,-28.31949 14.64345,-27.68323 14.92656,2.20091 13.24875,14.183 16.46633,25.87131 -7.80864,-3.29525 -26.72417,2.90177 -31.10978,1.81192 z"
       id="path6115"
       inkscape:connector-curvature="0"
       sodipodi:nodetypes="cccc" />
    <path
       style="fill:#000000;fill-opacity:1;fill-rule:evenodd;stroke:#000000;stroke-width:0.65199125px;stroke-linecap:butt;stroke-linejoin:miter;stroke-opacity:1"
       d="m 360.67779,387.77317 c -0.49682,-7.72701 3.74381,-17.10227 13.5833,-16.55025 14.26259,1.90957 13.06818,4.83711 16.14263,14.97817 -3.78238,5.48801 -25.53542,2.51765 -29.72593,1.57208 z"
       id="path6115-8"
       inkscape:connector-curvature="0"
       sodipodi:nodetypes="cccc" />
    <path
       style="fill:#000000;fill-opacity:1;fill-rule:evenodd;stroke:#000000;stroke-width:0.71607184px;stroke-linecap:butt;stroke-linejoin:miter;stroke-opacity:1"
       d="m 415.05602,335.22754 c 0.51996,-8.90593 -4.34588,-28.31949 -14.64345,-27.68323 -14.92656,2.20091 -13.24875,14.183 -16.46633,25.87131 7.80864,-3.29525 26.72417,2.90177 31.10978,1.81192 z"
       id="path6115-9"
       inkscape:connector-curvature="0"
       sodipodi:nodetypes="cccc" />
    <g
       id="g11530"
       transform="matrix(-1,0,0,1,788.52018,1.4285714)"
       style="fill:#ffffff;fill-opacity:1;stroke-width:4;stroke-miterlimit:4;stroke-dasharray:none">
      <g
         id="g11525"
         style="fill:#ffffff;fill-opacity:1;stroke-width:4;stroke-miterlimit:4;stroke-dasharray:none">
        <path
           style="fill:#ffffff;fill-opacity:1;fill-rule:evenodd;stroke:#000000;stroke-width:7;stroke-linecap:butt;stroke-linejoin:miter;stroke-miterlimit:4;stroke-dasharray:none;stroke-opacity:1"
           d="m 389.20482,498.60719 c 12.99375,-1.46429 27.25803,-11.6113 37.96498,-19.22666 6.23218,-4.50142 5.52366,-6.47657 -1.99522,-7.5121 -5.75396,0.61483 -13.91875,8.95333 -17.69744,-1.08845 12.73248,-21.0398 14.02577,-20.42862 22.06547,-34.86464 0.98428,-6.10423 -2.23515,-5.25367 -6.7084,-2.32871 l -19.05165,25.41927 c 3.26956,-2.80905 7.98401,1.15734 14.49207,-1.72629 6.50805,-2.88363 13.02399,-5.83156 16.32511,-8.89782 3.53086,-4.4115 1.95221,-5.46563 -2.65193,-6.58141 -11.5839,4.52224 -21.39877,11.05392 -33.61265,16.30268 7.2907,-9.74357 11.74806,-15.43545 16.34974,-22.75486 1.47427,-5.73857 -3.54889,-6.95317 -7.94891,-5.09954 l -15.48655,23.34197 8.67913,-18.23788 c -1.16846,-2.73483 -4.32551,-4.90041 -8.26481,-2.17049 -8.62159,17.51651 -19.28836,26.12693 -26.47574,49.82133 6.97442,3.06098 16.85272,15.87982 24.0168,15.6036 z"
           id="path10385-7"
           inkscape:connector-curvature="0"
           sodipodi:nodetypes="cccccccscccccccccc" />
        <rect
           style="opacity:1;fill:#ffffff;fill-opacity:1;stroke:none;stroke-width:4.29998493;stroke-linejoin:round;stroke-miterlimit:4;stroke-dasharray:none;stroke-opacity:1"
           id="rect10387-0"
           width="39.35775"
           height="6.9710679"
           x="-550.93042"
           y="666.65979"
           ry="0"
           transform="matrix(-0.92063603,0.39042196,-0.12356404,0.9923366,0,0)"
           rx="16.317307" />
        <path
           style="fill:#ffffff;fill-opacity:1;fill-rule:evenodd;stroke:#000000;stroke-width:4;stroke-linecap:round;stroke-linejoin:miter;stroke-miterlimit:4;stroke-dasharray:none;stroke-opacity:1"
           d="m 403.86285,463.84328 26.16306,-12.49713"
           id="path10389-6"
           inkscape:connector-curvature="0"
           sodipodi:nodetypes="cc" />
      </g>
    </g>
    <path
       style="fill:#ffffff;fill-opacity:1;fill-rule:evenodd;stroke:#000000;stroke-width:7;stroke-linecap:butt;stroke-linejoin:round;stroke-miterlimit:4;stroke-dasharray:none;stroke-opacity:1"
       d="m 333.36317,499.81076 c 12.99375,-1.46429 27.25803,-11.6113 37.96498,-19.22666 6.23218,-4.50142 5.52366,-6.47657 -1.99522,-7.5121 -5.75396,0.61483 -13.91875,8.95333 -17.69744,-1.08845 12.73248,-21.0398 14.02577,-20.42862 22.06547,-34.86464 0.98428,-6.10423 -2.23515,-5.25367 -6.7084,-2.32871 l -19.05165,25.41927 c 3.26956,-2.80905 7.98401,1.15734 14.49207,-1.72629 6.50805,-2.88363 13.02399,-5.83156 16.32511,-8.89782 3.53086,-4.4115 1.95221,-5.46563 -2.65193,-6.58141 -11.5839,4.52224 -21.39877,11.05392 -33.61265,16.30268 7.2907,-9.74357 11.74806,-15.43545 16.34974,-22.75486 1.47427,-5.73857 -1.40603,-5.88174 -5.80605,-4.02811 l -22.98655,28.34197 14.03627,-24.30931 c -1.16846,-2.73483 -2.5398,-4.18612 -6.4791,-1.4562 -8.62159,17.51651 -21.07407,25.41264 -28.26145,49.10704 6.97442,3.06098 16.85272,15.87982 24.0168,15.6036 z"
       id="path10385-7-4"
       inkscape:connector-curvature="0"
       sodipodi:nodetypes="cccccccscccccccccc" />
    <rect
       style="opacity:1;fill:#ffffff;fill-opacity:1;stroke:none;stroke-width:4.29998493;stroke-linejoin:round;stroke-miterlimit:4;stroke-dasharray:none;stroke-opacity:1"
       id="rect10387-0-0"
       width="34.627338"
       height="10.361242"
       x="-448.12326"
       y="660.15289"
       ry="0.67957771"
       transform="matrix(-0.87946706,0.47595976,-0.02889844,0.99958235,0,0)" />
    <path
       style="fill:#ffffff;fill-opacity:1;fill-rule:evenodd;stroke:#000000;stroke-width:4.3600111;stroke-linecap:round;stroke-linejoin:miter;stroke-miterlimit:4;stroke-dasharray:none;stroke-opacity:1"
       d="m 351.05441,472.05971 25.80785,-19.84175"
       id="path10389-6-7"
       inkscape:connector-curvature="0"
       sodipodi:nodetypes="cc" />
  </g>
</svg>
