<?xml version="1.0" encoding="UTF-8" standalone="no"?>
<!-- Created with Inkscape (http://www.inkscape.org/) -->

<svg
   xmlns:dc="http://purl.org/dc/elements/1.1/"
   xmlns:cc="http://creativecommons.org/ns#"
   xmlns:rdf="http://www.w3.org/1999/02/22-rdf-syntax-ns#"
   xmlns:svg="http://www.w3.org/2000/svg"
   xmlns="http://www.w3.org/2000/svg"
   xmlns:sodipodi="http://sodipodi.sourceforge.net/DTD/sodipodi-0.dtd"
   xmlns:inkscape="http://www.inkscape.org/namespaces/inkscape"
   width="64.064438mm"
   height="158.04617mm"
   viewBox="0 0 226.99998 560.00612"
   id="svg8019"
   version="1.1"
   inkscape:version="0.91 r13725"
   sodipodi:docname="disgust.svg">
  <defs
     id="defs8021" />
  <sodipodi:namedview
     id="base"
     pagecolor="#ffffff"
     bordercolor="#666666"
     borderopacity="1.0"
     inkscape:pageopacity="0.0"
     inkscape:pageshadow="2"
     inkscape:zoom="1.2457195"
     inkscape:cx="120.10648"
     inkscape:cy="566.16824"
     inkscape:document-units="px"
     inkscape:current-layer="layer1"
     showgrid="false"
     fit-margin-top="0"
     fit-margin-left="0"
     fit-margin-right="0"
     fit-margin-bottom="0"
     inkscape:window-width="1280"
     inkscape:window-height="657"
     inkscape:window-x="-8"
     inkscape:window-y="-8"
     inkscape:window-maximized="1" />
  <metadata
     id="metadata8024">
    <rdf:RDF>
      <cc:Work
         rdf:about="">
        <dc:format>image/svg+xml</dc:format>
        <dc:type
           rdf:resource="http://purl.org/dc/dcmitype/StillImage" />
        <dc:title></dc:title>
      </cc:Work>
    </rdf:RDF>
  </metadata>
  <g
     inkscape:label="Layer 1"
     inkscape:groupmode="layer"
     id="layer1"
     transform="translate(-300.78573,-380.93058)">
    <path
       style="opacity:1;fill:#d200a4;fill-opacity:1;stroke:#000000;stroke-width:7;stroke-linejoin:round;stroke-miterlimit:4;stroke-dasharray:none;stroke-opacity:1"
       d="m 414.27401,566.25504 a 109.9886,104.2765 0 0 0 -109.98828,104.27735 109.9886,104.2765 0 0 0 0.0527,1.41211 l 0,263.11914 c 0,1.31403 1.08681,2.37304 2.43555,2.37304 l 215.07813,0 c 1.34872,0 2.43359,-1.05901 2.43359,-2.37304 l 0,-265.25586 c 0,-0.18998 -0.0274,-0.37198 -0.0703,-0.54883 A 109.9886,104.2765 0 0 0 414.27401,566.25504 Z"
       id="rect6092"
       inkscape:connector-curvature="0" />
    <ellipse
       style="opacity:1;fill:#ffffff;fill-opacity:1;stroke:#000000;stroke-width:7;stroke-linejoin:round;stroke-miterlimit:4;stroke-dasharray:none;stroke-opacity:1"
       id="path6096"
       cx="414.27304"
       cy="463.97595"
       rx="79.545387"
       ry="79.545372" />
    <ellipse
       style="opacity:1;fill:#000000;fill-opacity:1;stroke:#000000;stroke-width:0.55042827;stroke-linejoin:round;stroke-miterlimit:4;stroke-dasharray:none;stroke-opacity:1"
       id="path6748"
       cx="390.12183"
       cy="448.93668"
       rx="13.224786"
       ry="9.7247858" />
    <ellipse
       style="opacity:1;fill:#000000;fill-opacity:1;stroke:#000000;stroke-width:0.55042821;stroke-linejoin:round;stroke-miterlimit:4;stroke-dasharray:none;stroke-opacity:1"
       id="path6748-6"
       cx="436.17056"
       cy="448.93668"
       rx="13.224786"
       ry="9.7247858" />
    <path
       style="fill:#000000;fill-opacity:1;fill-rule:evenodd;stroke:#000000;stroke-width:1.04970169px;stroke-linecap:butt;stroke-linejoin:miter;stroke-opacity:1"
       d="m 409.6932,490.9919 0.3125,20.03955 c 5.14559,0.75476 19.18481,8.17073 24.28125,6.19531 13.26486,-2.81081 10.22682,-32.71286 2.22467,-35.39194 -4.86592,-5.66506 -16.7038,9.05218 -26.81842,9.15708 z m -1.02028,0.01 c -5.22814,0.11514 -17.64928,-3.6477 -24.1848,0.51979 -5.5317,4.25209 -6.07769,11.30698 -2.38671,14.75 6.68113,5.73123 21.4525,4.16534 27.45633,4.74868 z"
       id="path7984"
       inkscape:connector-curvature="0"
       sodipodi:nodetypes="cccccccccc" />
    <path
       style="fill:#d200a4;fill-opacity:1;fill-rule:evenodd;stroke:#000000;stroke-width:7;stroke-linecap:butt;stroke-linejoin:miter;stroke-miterlimit:4;stroke-dasharray:none;stroke-opacity:1"
       d="m 405.10754,526.1217 9.93351,-18.16414 c -8.72971,-6.59533 -18.51674,-8.25649 -29.51672,-4.25721 l -5.10866,18.73176 c -5.28578,15.95826 18.73089,21.41663 24.69187,3.68959 z"
       id="path10477"
       inkscape:connector-curvature="0"
       sodipodi:nodetypes="ccccc" />
    <path
       style="fill:none;fill-rule:evenodd;stroke:#000000;stroke-width:1px;stroke-linecap:butt;stroke-linejoin:miter;stroke-opacity:1"
       d="m 399.71506,501.42983 -11.92021,35.19301"
       id="path10479"
       inkscape:connector-curvature="0"
       sodipodi:nodetypes="cc" />
  </g>
</svg>
