<?xml version="1.0" encoding="UTF-8" standalone="no"?>
<!-- Created with Inkscape (http://www.inkscape.org/) -->

<svg
   xmlns:dc="http://purl.org/dc/elements/1.1/"
   xmlns:cc="http://creativecommons.org/ns#"
   xmlns:rdf="http://www.w3.org/1999/02/22-rdf-syntax-ns#"
   xmlns:svg="http://www.w3.org/2000/svg"
   xmlns="http://www.w3.org/2000/svg"
   xmlns:sodipodi="http://sodipodi.sourceforge.net/DTD/sodipodi-0.dtd"
   xmlns:inkscape="http://www.inkscape.org/namespaces/inkscape"
   width="64.06443mm"
   height="158.04616mm"
   viewBox="0 0 226.99995 560.00606"
   id="svg6184"
   version="1.1"
   inkscape:version="0.91 r13725"
   sodipodi:docname="joy.svg">
  <defs
     id="defs6186" />
  <sodipodi:namedview
     id="base"
     pagecolor="#ffffff"
     bordercolor="#666666"
     borderopacity="1.0"
     inkscape:pageopacity="0.0"
     inkscape:pageshadow="2"
     inkscape:zoom="1.4"
     inkscape:cx="-49.267319"
     inkscape:cy="408.84871"
     inkscape:document-units="px"
     inkscape:current-layer="layer1"
     showgrid="false"
     inkscape:window-width="1280"
     inkscape:window-height="657"
     inkscape:window-x="-8"
     inkscape:window-y="-8"
     inkscape:window-maximized="1"
     fit-margin-top="0"
     fit-margin-left="0"
     fit-margin-right="0"
     fit-margin-bottom="0" />
  <metadata
     id="metadata6189">
    <rdf:RDF>
      <cc:Work
         rdf:about="">
        <dc:format>image/svg+xml</dc:format>
        <dc:type
           rdf:resource="http://purl.org/dc/dcmitype/StillImage" />
        <dc:title></dc:title>
      </cc:Work>
    </rdf:RDF>
  </metadata>
  <g
     inkscape:label="Layer 1"
     inkscape:groupmode="layer"
     id="layer1"
     transform="translate(-320.78573,-409.50204)">
    <path
       style="opacity:1;fill:#e1e100;fill-opacity:1;stroke:#000000;stroke-width:7.00000048;stroke-linejoin:round;stroke-miterlimit:4;stroke-dasharray:none;stroke-opacity:1"
       d="m 434.27401,594.82648 a 109.9886,104.2765 0 0 0 -109.98828,104.27735 109.9886,104.2765 0 0 0 0.0527,1.41211 l 0,263.11914 c 0,1.31403 1.08681,2.37304 2.43555,2.37304 l 215.07813,0 c 1.34872,0 2.43359,-1.05901 2.43359,-2.37304 l 0,-265.25586 c 0,-0.18998 -0.0274,-0.37198 -0.0703,-0.54883 A 109.9886,104.2765 0 0 0 434.27401,594.82648 Z"
       id="rect6092"
       inkscape:connector-curvature="0" />
    <ellipse
       style="opacity:1;fill:none;fill-opacity:1;stroke:#000000;stroke-width:7;stroke-linejoin:round;stroke-miterlimit:4;stroke-dasharray:none;stroke-opacity:1"
       id="path6096"
       cx="434.27304"
       cy="492.54739"
       rx="79.545387"
       ry="79.545372" />
    <circle
       style="opacity:1;fill:#000000;fill-opacity:1;stroke:#000000;stroke-width:0.6397149;stroke-linejoin:round;stroke-miterlimit:4;stroke-dasharray:none;stroke-opacity:1"
       id="path6748"
       cx="408.69327"
       cy="477.00812"
       r="13.180142" />
    <circle
       style="opacity:1;fill:#000000;fill-opacity:1;stroke:#000000;stroke-width:0.6397149;stroke-linejoin:round;stroke-miterlimit:4;stroke-dasharray:none;stroke-opacity:1"
       id="path6748-6"
       cx="457.59912"
       cy="477.00812"
       r="13.180142" />
    <path
       style="opacity:1;fill:#000000;fill-opacity:1;stroke:#000000;stroke-width:1.3607322;stroke-linejoin:round;stroke-miterlimit:4;stroke-dasharray:none;stroke-opacity:1"
       id="path6765"
       sodipodi:type="arc"
       sodipodi:cx="434.00909"
       sodipodi:cy="521.70697"
       sodipodi:rx="31.787636"
       sodipodi:ry="31.457333"
       sodipodi:start="0"
       sodipodi:end="3.1415927"
       d="m 465.79673,521.70697 a 31.787636,31.457333 0 0 1 -15.89382,27.24285 31.787636,31.457333 0 0 1 -31.78763,0 31.787636,31.457333 0 0 1 -15.89382,-27.24285 l 31.78763,0 z" />
    <path
       style="fill:#ffffff;fill-opacity:1;fill-rule:evenodd;stroke:#000000;stroke-width:7;stroke-linecap:butt;stroke-linejoin:miter;stroke-miterlimit:4;stroke-dasharray:none;stroke-opacity:1"
       d="m 531.40014,444.98273 c 1.91689,-24.43021 -6.52211,-21.12733 -11.32951,-17.81638 -2.42259,-4.17449 -8.02429,-6.40688 -12.74549,-0.80836 -2.64103,-6.04172 -8.17796,-5.33819 -11.9856,-1.46784 -2.62069,-3.64902 -3.40286,-4.70119 -8.27794,-1.77565 0,0 -3.7038,12.06501 -4.66481,16.81913 -1.66723,12.24147 -0.64531,22.6982 4.40665,29.51295 1.03305,1.39352 2.68084,6.56212 3.85422,7.82105 11.9805,-0.0943 30.29651,4.04354 33.81495,4.9987 9.85733,-10.7445 14.71232,-17.75115 16.89395,-28.4068 0.98767,-9.60063 1.58501,-23.53549 -2.33302,-27.14892 -10.90445,-1.69779 -4.30154,13.70081 -7.41842,20.42369 z"
       id="path8090"
       inkscape:connector-curvature="0"
       sodipodi:nodetypes="ccccccscccccc" />
    <path
       style="fill:#ffffff;fill-opacity:1;fill-rule:evenodd;stroke:#000000;stroke-width:7;stroke-linecap:butt;stroke-linejoin:miter;stroke-miterlimit:4;stroke-dasharray:none;stroke-opacity:1"
       d="m 359.96147,634.20751 c 8.82556,-22.86085 15.00948,-16.23629 17.91471,-11.17337 3.9883,-2.71822 10.00471,-2.31149 11.84393,4.77727 4.99197,-4.30785 9.68161,-1.28127 11.44351,3.85423 3.93995,-2.15873 5.09992,-2.76973 8.23269,1.97483 0,0 -1.87199,12.48111 -3.05918,17.18387 -3.78495,11.76041 -9.22409,20.74946 -16.72438,24.71289 -1.5337,0.81047 -5.25273,4.75998 -6.85484,5.38844 -10.76404,-5.26084 -29.0702,-9.44199 -32.65601,-10.10061 -4.24813,-13.94864 -5.59967,-22.36513 -2.96374,-32.91759 3.25691,-9.08515 8.73835,-21.91056 13.83294,-23.47671 10.5678,3.17975 -2.03962,14.21461 -2.13305,21.62428 z"
       id="path8090-1"
       inkscape:connector-curvature="0"
       sodipodi:nodetypes="ccccccscccccc" />
  </g>
</svg>
