<?xml version="1.0" encoding="UTF-8" standalone="no"?>
<!-- Created with Inkscape (http://www.inkscape.org/) -->

<svg
   xmlns:dc="http://purl.org/dc/elements/1.1/"
   xmlns:cc="http://creativecommons.org/ns#"
   xmlns:rdf="http://www.w3.org/1999/02/22-rdf-syntax-ns#"
   xmlns:svg="http://www.w3.org/2000/svg"
   xmlns="http://www.w3.org/2000/svg"
   xmlns:sodipodi="http://sodipodi.sourceforge.net/DTD/sodipodi-0.dtd"
   xmlns:inkscape="http://www.inkscape.org/namespaces/inkscape"
   width="64.064438mm"
   height="158.04617mm"
   viewBox="0 0 226.99999 560.00613"
   id="svg5542"
   version="1.1"
   inkscape:version="0.91 r13725"
   sodipodi:docname="sadness.svg">
  <defs
     id="defs5544" />
  <sodipodi:namedview
     id="base"
     pagecolor="#ffffff"
     bordercolor="#666666"
     borderopacity="1.0"
     inkscape:pageopacity="0.0"
     inkscape:pageshadow="2"
     inkscape:zoom="1.979899"
     inkscape:cx="112.82558"
     inkscape:cy="369.33602"
     inkscape:document-units="px"
     inkscape:current-layer="layer1"
     showgrid="true"
     inkscape:snap-global="false"
     inkscape:snap-bbox="true"
     showguides="false"
     inkscape:snap-bbox-edge-midpoints="true"
     inkscape:bbox-nodes="true"
     inkscape:window-width="1280"
     inkscape:window-height="657"
     inkscape:window-x="-8"
     inkscape:window-y="-8"
     inkscape:window-maximized="1"
     fit-margin-top="0"
     fit-margin-left="0"
     fit-margin-right="0"
     fit-margin-bottom="0">
    <inkscape:grid
       type="xygrid"
       id="grid6106"
       originx="-196.50001"
       originy="-330.90904" />
  </sodipodi:namedview>
  <metadata
     id="metadata5547">
    <rdf:RDF>
      <cc:Work
         rdf:about="">
        <dc:format>image/svg+xml</dc:format>
        <dc:type
           rdf:resource="http://purl.org/dc/dcmitype/StillImage" />
        <dc:title></dc:title>
      </cc:Work>
    </rdf:RDF>
  </metadata>
  <g
     inkscape:label="Layer 1"
     inkscape:groupmode="layer"
     id="layer1"
     transform="translate(-196.5,-161.44701)">
    <path
       style="opacity:1;fill:#001dd1;fill-opacity:1;stroke:#000000;stroke-width:7;stroke-linejoin:round;stroke-miterlimit:4;stroke-dasharray:none;stroke-opacity:1"
       d="M 309.98828,346.77148 A 109.9886,104.2765 0 0 0 200,451.04883 a 109.9886,104.2765 0 0 0 0.0527,1.41211 l 0,263.11914 c 0,1.31403 1.08681,2.37304 2.43555,2.37304 l 215.07813,0 c 1.34872,0 2.43359,-1.05901 2.43359,-2.37304 l 0,-265.25586 c 0,-0.18998 -0.0274,-0.37198 -0.0703,-0.54883 A 109.9886,104.2765 0 0 0 309.98828,346.77148 Z"
       id="rect6092"
       inkscape:connector-curvature="0" />
    <ellipse
       style="opacity:1;fill:none;fill-opacity:1;stroke:#000000;stroke-width:7;stroke-linejoin:round;stroke-miterlimit:4;stroke-dasharray:none;stroke-opacity:1"
       id="path6096"
       cx="309.9873"
       cy="244.49239"
       rx="79.545387"
       ry="79.545372" />
    <path
       style="fill:#000000;fill-opacity:1;fill-rule:evenodd;stroke:#000000;stroke-width:0.77708989px;stroke-linecap:butt;stroke-linejoin:miter;stroke-opacity:1"
       d="m 261.37387,234.63534 c 5.45763,2.96163 11.37879,3.88546 16.92944,4.16297 6.10572,-0.27751 12.26241,-1.14438 17.76201,-4.16297 -1.43046,4.50408 0,3.88546 -7.77086,7.77091 -5.32673,0.86178 -8.58814,3.2725 -19.42728,0 -7.7709,-3.88545 -5.38659,-2.42913 -7.49331,-7.77091 z"
       id="path6115"
       inkscape:connector-curvature="0"
       sodipodi:nodetypes="cccccc" />
    <path
       style="fill:#000000;fill-opacity:1;fill-rule:evenodd;stroke:#000000;stroke-width:0.77708989px;stroke-linecap:butt;stroke-linejoin:miter;stroke-opacity:1"
       d="m 323.24247,234.63536 c 5.45761,2.96163 11.3788,3.88546 16.92946,4.16298 6.10569,-0.27752 12.26243,-1.14442 17.76204,-4.16298 -1.43049,4.50403 0,3.88546 -7.77089,7.7709 -5.32671,0.86174 -8.58817,3.27249 -19.42725,0 -7.77089,-3.88544 -5.38658,-2.42911 -7.49336,-7.7709 z"
       id="path6115-2"
       inkscape:connector-curvature="0"
       sodipodi:nodetypes="cccccc" />
    <path
       style="fill:#001dd1;fill-opacity:1;fill-rule:evenodd;stroke:#000000;stroke-width:1;stroke-linecap:butt;stroke-linejoin:miter;stroke-miterlimit:4;stroke-dasharray:none;stroke-opacity:1"
       d="m 333.22717,275.64773 c 1.56901,9.23691 12.22264,9.20586 13.80328,-0.01 -0.027,-11.66081 -6.81928,-17.4955 -6.81928,-25.99623 0,8.50073 -6.984,14.0805 -6.984,26.00571 z"
       id="path6134"
       inkscape:connector-curvature="0"
       sodipodi:nodetypes="cccc" />
    <path
       style="fill:none;fill-rule:evenodd;stroke:#000000;stroke-width:5.00000048;stroke-linecap:round;stroke-linejoin:miter;stroke-miterlimit:4;stroke-dasharray:none;stroke-opacity:1"
       d="m 282.83759,291.66363 c 19.52961,-14.14213 33.33504,-15.15229 51.51778,-1.01015"
       id="path10487"
       inkscape:connector-curvature="0"
       sodipodi:nodetypes="cc" />
  </g>
</svg>
