<?xml version="1.0" encoding="UTF-8" standalone="no"?>
<!-- Created with Inkscape (http://www.inkscape.org/) -->

<svg
   xmlns:dc="http://purl.org/dc/elements/1.1/"
   xmlns:cc="http://creativecommons.org/ns#"
   xmlns:rdf="http://www.w3.org/1999/02/22-rdf-syntax-ns#"
   xmlns:svg="http://www.w3.org/2000/svg"
   xmlns="http://www.w3.org/2000/svg"
   xmlns:sodipodi="http://sodipodi.sourceforge.net/DTD/sodipodi-0.dtd"
   xmlns:inkscape="http://www.inkscape.org/namespaces/inkscape"
   width="64.064438mm"
   height="158.04617mm"
   viewBox="0 0 226.99998 560.00613"
   id="svg8594"
   version="1.1"
   inkscape:version="0.91 r13725"
   sodipodi:docname="surprise.svg">
  <defs
     id="defs8596" />
  <sodipodi:namedview
     id="base"
     pagecolor="#ffffff"
     bordercolor="#666666"
     borderopacity="1.0"
     inkscape:pageopacity="0.0"
     inkscape:pageshadow="2"
     inkscape:zoom="1.1296297"
     inkscape:cx="61.43558"
     inkscape:cy="369.78084"
     inkscape:document-units="px"
     inkscape:current-layer="layer1"
     showgrid="false"
     fit-margin-top="0"
     fit-margin-left="0"
     fit-margin-right="0"
     fit-margin-bottom="0"
     inkscape:window-width="1280"
     inkscape:window-height="657"
     inkscape:window-x="-8"
     inkscape:window-y="-8"
     inkscape:window-maximized="1" />
  <metadata
     id="metadata8599">
    <rdf:RDF>
      <cc:Work
         rdf:about="">
        <dc:format>image/svg+xml</dc:format>
        <dc:type
           rdf:resource="http://purl.org/dc/dcmitype/StillImage" />
        <dc:title></dc:title>
      </cc:Work>
    </rdf:RDF>
  </metadata>
  <g
     inkscape:label="Layer 1"
     inkscape:groupmode="layer"
     id="layer1"
     transform="translate(-466.50002,-415.21629)">
    <path
       style="opacity:1;fill:#007dff;fill-opacity:1;stroke:#000000;stroke-width:7;stroke-linejoin:round;stroke-miterlimit:4;stroke-dasharray:none;stroke-opacity:1"
       d="m 579.9883,600.54076 a 109.9886,104.2765 0 0 0 -109.98828,104.27735 109.9886,104.2765 0 0 0 0.0527,1.41211 l 0,263.11914 c 0,1.31403 1.08681,2.37304 2.43555,2.37304 l 215.07813,0 c 1.34872,0 2.43359,-1.05901 2.43359,-2.37304 l 0,-265.25586 c 0,-0.18998 -0.0274,-0.37198 -0.0703,-0.54883 A 109.9886,104.2765 0 0 0 579.9883,600.54076 Z"
       id="rect6092"
       inkscape:connector-curvature="0" />
    <ellipse
       style="opacity:1;fill:#ffffff;fill-opacity:1;stroke:#000000;stroke-width:7;stroke-linejoin:round;stroke-miterlimit:4;stroke-dasharray:none;stroke-opacity:1"
       id="path6096"
       cx="579.9873"
       cy="498.26166"
       rx="79.545387"
       ry="79.545372" />
    <circle
       style="opacity:1;fill:#000000;fill-opacity:1;stroke:#000000;stroke-width:0.6397149;stroke-linejoin:round;stroke-miterlimit:4;stroke-dasharray:none;stroke-opacity:1"
       id="path6748"
       cx="554.40753"
       cy="482.68854"
       r="13.180142" />
    <circle
       style="opacity:1;fill:#000000;fill-opacity:1;stroke:#000000;stroke-width:0.6397149;stroke-linejoin:round;stroke-miterlimit:4;stroke-dasharray:none;stroke-opacity:1"
       id="path6748-6"
       cx="603.31342"
       cy="483.29965"
       r="13.180142" />
    <ellipse
       style="opacity:1;fill:#000000;fill-opacity:1;stroke:#000000;stroke-width:1.13949299;stroke-linejoin:round;stroke-miterlimit:4;stroke-dasharray:none;stroke-opacity:1"
       id="path6765"
       cx="580.06598"
       cy="534.84412"
       rx="29.041216"
       ry="24.145897" />
    <path
       style="fill:none;fill-opacity:1;fill-rule:evenodd;stroke:#007dff;stroke-width:4.5662756;stroke-linecap:butt;stroke-linejoin:miter;stroke-miterlimit:4;stroke-dasharray:none;stroke-opacity:1"
       d="m 532.82215,575.45563 c 13.58069,10.71564 7.83555,15.65918 0.99039,20.2742 -5.93266,2.38729 -11.86534,4.29709 -17.79801,2.44059 -10.93474,-4.88388 -6.56489,8.69227 -9.74184,13.16565"
       id="path8022"
       inkscape:connector-curvature="0"
       sodipodi:nodetypes="cccc" />
    <path
       style="fill:none;fill-rule:evenodd;stroke:#007dff;stroke-width:3.86448932;stroke-linecap:butt;stroke-linejoin:miter;stroke-miterlimit:4;stroke-dasharray:none;stroke-opacity:1"
       d="m 660.73735,519.85552 c -0.40978,-5.21091 0.48381,-21.88379 11.75185,-31.52763 0,0 31.44064,-14.77854 -9.55404,39.90166 -12.55449,19.28121 9.84739,28.12694 15.87765,1.43081"
       id="path8024"
       inkscape:connector-curvature="0"
       sodipodi:nodetypes="cccc" />
    <path
       style="fill:none;fill-rule:evenodd;stroke:#007dff;stroke-width:5.63821745;stroke-linecap:butt;stroke-linejoin:miter;stroke-miterlimit:4;stroke-dasharray:none;stroke-opacity:1"
       d="m 614.69537,529.69261 c -0.84382,3.39739 -6.26531,29.65383 -14.54377,14.72035 -12.5221,-0.78563 1.07949,33.52421 14.32784,14.62008 0.94967,-1.35508 1.89753,-2.98359 2.83381,-4.91806 5.42967,-12.0439 15.27265,-6.87858 15.27265,-7.32465"
       id="path8026"
       inkscape:connector-curvature="0"
       sodipodi:nodetypes="ccscc" />
    <path
       style="fill:none;fill-opacity:1;fill-rule:evenodd;stroke:#007dff;stroke-width:4.4000001;stroke-linecap:square;stroke-linejoin:miter;stroke-miterlimit:4;stroke-dasharray:none;stroke-opacity:1"
       d="m 598.75252,427.34045 c -1.79115,13.53346 -3.59791,18.41087 -0.65462,21.70367 2.30112,2.57437 12.02977,-1.88418 8.45402,-7.9445 -2.8176,-4.77538 -16.70772,-1.38729 -20.63547,16.11788"
       id="path8028"
       inkscape:connector-curvature="0"
       sodipodi:nodetypes="cssc" />
    <path
       style="fill:none;fill-rule:evenodd;stroke:#007dff;stroke-width:4.26049185;stroke-linecap:butt;stroke-linejoin:miter;stroke-miterlimit:4;stroke-dasharray:none;stroke-opacity:1"
       d="m 566.59191,424.34997 c -8.69783,4.19437 -19.07574,24.84288 -25.91696,10.85436 -2.00699,-11.42545 -7.44152,-9.75433 -14.60044,-1.4943 -4.58355,8.54192 -11.24101,15.04371 -25.19634,14.36662"
       id="path8032"
       inkscape:connector-curvature="0"
       sodipodi:nodetypes="cccc" />
    <path
       style="opacity:0.98000004;fill:#007dff;fill-opacity:1;stroke:#007dff;stroke-width:5.38466597;stroke-linecap:square;stroke-linejoin:round;stroke-miterlimit:4;stroke-dasharray:none;stroke-opacity:1"
       id="path8042"
       d="m 676.51094,581.21579 c -0.24717,2.6308 -0.57787,5.24811 -1.04663,7.83538 0,0 -11.7226,6.67751 -11.7226,6.67751 l 0,0 c 0.57236,-2.43865 0.80349,-4.92894 1.07978,-7.43751 0,0 11.68945,-7.07538 11.68945,-7.07538 z"
       inkscape:connector-curvature="0" />
    <path
       style="opacity:0.98000004;fill:#007dff;fill-opacity:1;stroke:#007dff;stroke-width:4.19999981;stroke-linecap:square;stroke-linejoin:round;stroke-miterlimit:4;stroke-dasharray:none;stroke-opacity:1"
       id="path8044"
       d="m 647.87517,428.78338 c 0.59671,2.82065 2.31619,5.77537 3.84494,8.65175 1.5848,2.97003 3.39311,5.81156 4.86748,8.80334 0.88695,1.93158 1.60027,3.84985 2.42227,5.7768 0,0 -9.633,-0.55788 -9.633,-0.55788 l 0,0 c -0.74227,-1.8724 -1.46502,-3.73961 -2.32835,-5.62057 -1.47624,-2.96178 -3.27614,-5.79645 -4.8436,-8.7422 -1.62517,-3.08492 -3.34838,-6.22402 -4.16342,-9.27958 0,0 9.83368,0.96834 9.83368,0.96834 z"
       inkscape:connector-curvature="0" />
    <path
       style="opacity:0.98000004;fill:#007dff;fill-opacity:1;stroke:#007dff;stroke-width:4.19999981;stroke-linecap:square;stroke-linejoin:round;stroke-miterlimit:4;stroke-dasharray:none;stroke-opacity:1"
       id="path8046"
       d="m 492.66019,567.14788 c -1.21195,1.9701 -2.60299,3.81239 -3.85112,5.75934 -1.14758,1.73951 -2.39485,3.40882 -3.58394,5.1206 -1.05377,1.45722 -2.2335,3.21208 -1.80677,5.0847 0.54074,0.86583 0.20737,0.46851 1.01884,1.17599 0,0 -9.46548,5.83617 -9.46548,5.83617 l 0,0 c -1.02895,-1.03586 -0.58405,-0.47098 -1.34145,-1.6893 -0.65719,-2.14827 0.13361,-4.224 1.39555,-6.01366 1.30657,-1.60381 2.36187,-3.43258 3.60986,-5.0789 1.33742,-1.82459 2.43756,-3.81787 3.85198,-5.59256 0,0 10.17253,-4.60238 10.17253,-4.60238 z"
       inkscape:connector-curvature="0" />
    <path
       style="opacity:0.98000004;fill:#007dff;fill-opacity:1;stroke:#007dff;stroke-width:4.19999981;stroke-linecap:square;stroke-linejoin:round;stroke-miterlimit:4;stroke-dasharray:none;stroke-opacity:1"
       id="path8048"
       d="m 640.31828,491.20279 c 2.1958,1.93283 3.79448,4.22913 4.86956,6.93407 1.17211,2.4543 1.56987,5.12625 2.15654,7.74803 0.28822,1.25751 0.57217,2.50772 0.92809,3.74776 0,0 -9.71271,5.30621 -9.71271,5.30621 l 0,0 c -0.38262,-1.25726 -0.67378,-2.52228 -0.96071,-3.80482 -0.61618,-2.56093 -0.88804,-5.21506 -2.07124,-7.61642 -0.95882,-2.54455 -2.44536,-4.69452 -4.63553,-6.35297 0,0 9.426,-5.96186 9.426,-5.96186 z"
       inkscape:connector-curvature="0" />
    <path
       style="opacity:0.98000004;fill:#007dff;fill-opacity:1;stroke:#007dff;stroke-width:4.19999981;stroke-linecap:square;stroke-linejoin:round;stroke-miterlimit:4;stroke-dasharray:none;stroke-opacity:1"
       id="path8058"
       d="m 539.69508,500.19643 c -0.074,2.86277 -0.0535,5.72714 -0.048,8.59062 0.008,0.36633 0.0156,0.73266 0.0234,1.09899 0,0 -9.88836,5.03837 -9.88836,5.03837 l 0,0 c 0.008,-0.37428 0.0156,-0.74855 0.0234,-1.12283 0.005,-2.84716 0.0265,-5.69527 -0.048,-8.54172 0,0 9.93755,-5.06343 9.93755,-5.06343 z"
       inkscape:connector-curvature="0" />
    <path
       style="opacity:0.98000004;fill:#007dff;fill-opacity:1;stroke:#007dff;stroke-width:4.19999981;stroke-linecap:square;stroke-linejoin:round;stroke-miterlimit:4;stroke-dasharray:none;stroke-opacity:1"
       id="path8060"
       d="m 486.71989,429.76335 c 1.48604,2.1085 3.37736,3.48132 5.58105,4.73238 0.30208,0.19265 0.60416,0.38531 0.90624,0.57797 0,0 -9.34664,6.00384 -9.34664,6.00384 l 0,0 c -0.28018,-0.18333 -0.56035,-0.36666 -0.84052,-0.54999 -2.31196,-1.33485 -4.21603,-2.98224 -5.89151,-5.07221 0,0 9.59138,-5.69199 9.59138,-5.69199 z"
       inkscape:connector-curvature="0" />
    <path
       style="fill:none;fill-opacity:1;fill-rule:evenodd;stroke:#007dff;stroke-width:5.83234358;stroke-linecap:butt;stroke-linejoin:miter;stroke-miterlimit:4;stroke-dasharray:none;stroke-opacity:1"
       d="m 490.95082,502.00266 c 36.75741,-49.35105 -15.6474,-23.2821 7.96368,-7.93913 20.15108,15.6912 0.83594,20.67434 -7.05476,18.39719 -22.85234,-3.34986 -12.88589,19.02376 -17.11136,24.51073"
       id="path8022-7"
       inkscape:connector-curvature="0"
       sodipodi:nodetypes="cccc" />
    <path
       sodipodi:type="spiral"
       style="fill:none;fill-opacity:1;fill-rule:evenodd;stroke:#007dff;stroke-width:3;stroke-linecap:round;stroke-linejoin:miter;stroke-miterlimit:4;stroke-dasharray:none;stroke-opacity:1"
       id="path8077"
       sodipodi:cx="521.17218"
       sodipodi:cy="541.66504"
       sodipodi:expansion="1"
       sodipodi:revolution="1.986825"
       sodipodi:radius="12.928023"
       sodipodi:argument="-17.210684"
       sodipodi:t0="0.024532834"
       d="m 521.05621,541.96024 c -0.6573,0.82706 -1.61822,-0.35695 -1.6933,-1.00599 -0.19562,-1.69103 1.6277,-2.74982 3.11487,-2.61255 2.52092,0.23269 3.95032,2.8928 3.53181,5.22375 -0.59986,3.341 -4.16828,5.17107 -7.33263,4.45107 -4.1616,-0.9469 -6.40043,-5.44729 -5.37033,-9.44152 1.28514,-4.98319 6.72796,-7.63426 11.5504,-6.28959 5.80555,1.6188 8.87071,8.00959 7.20885,13.6593 -1.40602,4.77991 -5.78364,8.17994 -10.7036,8.64695" />
  </g>
</svg>
